<mxfile host="app.diagrams.net" modified="2024-01-26T06:52:08.124Z" agent="Mozilla/5.0 (Windows NT 10.0; Win64; x64) AppleWebKit/537.36 (KHTML, like Gecko) Chrome/111.0.0.0 Safari/537.36" etag="0C2cApvFfg8oMsPNUkuo" version="23.0.2" type="github">
  <diagram name="Page-1" id="2YBvvXClWsGukQMizWep">
    <mxGraphModel dx="2109" dy="701" grid="1" gridSize="10" guides="1" tooltips="1" connect="1" arrows="1" fold="1" page="1" pageScale="1" pageWidth="850" pageHeight="1100" math="0" shadow="0">
      <root>
        <mxCell id="0" />
        <mxCell id="1" parent="0" />
        <mxCell id="tqVgQ0UVKhWxxZq-fLlv-146" style="edgeStyle=orthogonalEdgeStyle;rounded=0;orthogonalLoop=1;jettySize=auto;html=1;exitX=0.5;exitY=1;exitDx=0;exitDy=0;entryX=0;entryY=0.5;entryDx=0;entryDy=0;entryPerimeter=0;" parent="1" source="tqVgQ0UVKhWxxZq-fLlv-1" target="tqVgQ0UVKhWxxZq-fLlv-4" edge="1">
          <mxGeometry relative="1" as="geometry">
            <mxPoint x="108" y="290" as="targetPoint" />
            <mxPoint x="-52" y="229" as="sourcePoint" />
          </mxGeometry>
        </mxCell>
        <mxCell id="tqVgQ0UVKhWxxZq-fLlv-1" value="web service" style="rounded=1;whiteSpace=wrap;html=1;" parent="1" vertex="1">
          <mxGeometry x="83" y="159" width="120" height="60" as="geometry" />
        </mxCell>
        <mxCell id="tqVgQ0UVKhWxxZq-fLlv-2" value="" style="endArrow=classic;html=1;rounded=0;entryX=0.5;entryY=0;entryDx=0;entryDy=0;" parent="1" target="tqVgQ0UVKhWxxZq-fLlv-1" edge="1">
          <mxGeometry width="50" height="50" relative="1" as="geometry">
            <mxPoint x="143" y="140" as="sourcePoint" />
            <mxPoint x="173" y="100" as="targetPoint" />
          </mxGeometry>
        </mxCell>
        <mxCell id="tqVgQ0UVKhWxxZq-fLlv-3" value="提交运行" style="text;html=1;strokeColor=none;fillColor=none;align=center;verticalAlign=middle;whiteSpace=wrap;rounded=0;" parent="1" vertex="1">
          <mxGeometry x="113" y="110" width="60" height="30" as="geometry" />
        </mxCell>
        <mxCell id="tqVgQ0UVKhWxxZq-fLlv-150" style="edgeStyle=orthogonalEdgeStyle;rounded=0;orthogonalLoop=1;jettySize=auto;html=1;exitX=1;exitY=0.75;exitDx=0;exitDy=0;exitPerimeter=0;entryX=0.5;entryY=0;entryDx=0;entryDy=0;" parent="1" source="tqVgQ0UVKhWxxZq-fLlv-4" target="tqVgQ0UVKhWxxZq-fLlv-6" edge="1">
          <mxGeometry relative="1" as="geometry" />
        </mxCell>
        <mxCell id="tqVgQ0UVKhWxxZq-fLlv-151" style="edgeStyle=orthogonalEdgeStyle;rounded=0;orthogonalLoop=1;jettySize=auto;html=1;exitX=1;exitY=0.5;exitDx=0;exitDy=0;exitPerimeter=0;entryX=0.5;entryY=0;entryDx=0;entryDy=0;" parent="1" source="tqVgQ0UVKhWxxZq-fLlv-4" target="tqVgQ0UVKhWxxZq-fLlv-148" edge="1">
          <mxGeometry relative="1" as="geometry" />
        </mxCell>
        <mxCell id="tqVgQ0UVKhWxxZq-fLlv-152" style="edgeStyle=orthogonalEdgeStyle;rounded=0;orthogonalLoop=1;jettySize=auto;html=1;exitX=1;exitY=0.25;exitDx=0;exitDy=0;exitPerimeter=0;entryX=0.5;entryY=0;entryDx=0;entryDy=0;" parent="1" source="tqVgQ0UVKhWxxZq-fLlv-4" target="tqVgQ0UVKhWxxZq-fLlv-149" edge="1">
          <mxGeometry relative="1" as="geometry" />
        </mxCell>
        <mxCell id="tqVgQ0UVKhWxxZq-fLlv-4" value="" style="html=1;strokeWidth=2;outlineConnect=0;dashed=0;align=center;fontSize=8;fillColor=none;verticalLabelPosition=bottom;verticalAlign=top;shape=mxgraph.eip.recipient_list;rotation=90;" parent="1" vertex="1">
          <mxGeometry x="88.5" y="299.5" width="108" height="91" as="geometry" />
        </mxCell>
        <mxCell id="tqVgQ0UVKhWxxZq-fLlv-160" style="rounded=0;orthogonalLoop=1;jettySize=auto;html=1;exitX=0.5;exitY=1;exitDx=0;exitDy=0;entryX=0.5;entryY=0;entryDx=0;entryDy=0;dashed=1;dashPattern=8 8;" parent="1" source="tqVgQ0UVKhWxxZq-fLlv-155" target="tqVgQ0UVKhWxxZq-fLlv-154" edge="1">
          <mxGeometry relative="1" as="geometry">
            <mxPoint x="-12" y="609" as="targetPoint" />
          </mxGeometry>
        </mxCell>
        <mxCell id="tqVgQ0UVKhWxxZq-fLlv-181" value="run" style="edgeLabel;html=1;align=center;verticalAlign=middle;resizable=0;points=[];" parent="tqVgQ0UVKhWxxZq-fLlv-160" vertex="1" connectable="0">
          <mxGeometry x="0.0322" y="-4" relative="1" as="geometry">
            <mxPoint as="offset" />
          </mxGeometry>
        </mxCell>
        <mxCell id="tqVgQ0UVKhWxxZq-fLlv-170" style="rounded=0;orthogonalLoop=1;jettySize=auto;html=1;entryX=0.25;entryY=0;entryDx=0;entryDy=0;dashed=1;dashPattern=8 8;exitX=0.5;exitY=1;exitDx=0;exitDy=0;" parent="1" source="tqVgQ0UVKhWxxZq-fLlv-155" target="tqVgQ0UVKhWxxZq-fLlv-163" edge="1">
          <mxGeometry relative="1" as="geometry">
            <mxPoint x="140" y="600" as="sourcePoint" />
          </mxGeometry>
        </mxCell>
        <mxCell id="tqVgQ0UVKhWxxZq-fLlv-182" value="run" style="edgeLabel;html=1;align=center;verticalAlign=middle;resizable=0;points=[];" parent="tqVgQ0UVKhWxxZq-fLlv-170" vertex="1" connectable="0">
          <mxGeometry x="-0.2556" y="-1" relative="1" as="geometry">
            <mxPoint as="offset" />
          </mxGeometry>
        </mxCell>
        <mxCell id="tqVgQ0UVKhWxxZq-fLlv-6" value="调度器【日常】" style="rounded=1;whiteSpace=wrap;html=1;fillColor=#dae8fc;strokeColor=#6c8ebf;" parent="1" vertex="1">
          <mxGeometry x="-77" y="520" width="120" height="60" as="geometry" />
        </mxCell>
        <mxCell id="tqVgQ0UVKhWxxZq-fLlv-55" value="" style="group" parent="1" vertex="1" connectable="0">
          <mxGeometry x="630" y="780" width="260" height="250" as="geometry" />
        </mxCell>
        <mxCell id="tqVgQ0UVKhWxxZq-fLlv-10" value="" style="swimlane;startSize=0;" parent="tqVgQ0UVKhWxxZq-fLlv-55" vertex="1">
          <mxGeometry y="30" width="260" height="220" as="geometry">
            <mxRectangle y="30" width="50" height="40" as="alternateBounds" />
          </mxGeometry>
        </mxCell>
        <mxCell id="tqVgQ0UVKhWxxZq-fLlv-13" value="" style="rounded=1;whiteSpace=wrap;html=1;strokeColor=#B3B3B3;arcSize=20;absoluteArcSize=1;" parent="tqVgQ0UVKhWxxZq-fLlv-10" vertex="1">
          <mxGeometry x="20" y="15" width="200" height="170" as="geometry" />
        </mxCell>
        <mxCell id="tqVgQ0UVKhWxxZq-fLlv-14" value="" style="ellipse;whiteSpace=wrap;html=1;aspect=fixed;strokeColor=none;fillColor=#e5e5e5;part=1;" parent="tqVgQ0UVKhWxxZq-fLlv-13" vertex="1">
          <mxGeometry width="46" height="46" relative="1" as="geometry">
            <mxPoint x="15" y="10" as="offset" />
          </mxGeometry>
        </mxCell>
        <mxCell id="tqVgQ0UVKhWxxZq-fLlv-15" value="" style="html=1;strokeColor=none;fillColor=#fd7298;part=1;" parent="tqVgQ0UVKhWxxZq-fLlv-14" vertex="1">
          <mxGeometry x="0.5" y="0.5" width="19" height="19" relative="1" as="geometry">
            <mxPoint x="-9.5" y="-9.5" as="offset" />
          </mxGeometry>
        </mxCell>
        <mxCell id="tqVgQ0UVKhWxxZq-fLlv-16" value="沙盒" style="shape=partialRectangle;whiteSpace=wrap;html=1;top=0;left=0;fillColor=none;right=0;fontStyle=1;align=left;strokeColor=#B3B3B3;part=1;" parent="tqVgQ0UVKhWxxZq-fLlv-13" vertex="1">
          <mxGeometry x="1" width="130" height="30" relative="1" as="geometry">
            <mxPoint x="-130" y="20" as="offset" />
          </mxGeometry>
        </mxCell>
        <mxCell id="tqVgQ0UVKhWxxZq-fLlv-17" value="gamer" style="text;html=1;strokeColor=none;fillColor=none;align=left;verticalAlign=middle;whiteSpace=wrap;rounded=0;part=1;" parent="tqVgQ0UVKhWxxZq-fLlv-13" vertex="1">
          <mxGeometry x="1" width="130" height="24" relative="1" as="geometry">
            <mxPoint x="-130" y="54" as="offset" />
          </mxGeometry>
        </mxCell>
        <mxCell id="tqVgQ0UVKhWxxZq-fLlv-18" value="pyengs[1..2]" style="text;html=1;strokeColor=none;fillColor=none;align=left;verticalAlign=middle;whiteSpace=wrap;rounded=0;part=1;" parent="tqVgQ0UVKhWxxZq-fLlv-13" vertex="1">
          <mxGeometry x="1" width="130" height="24" relative="1" as="geometry">
            <mxPoint x="-130" y="78" as="offset" />
          </mxGeometry>
        </mxCell>
        <mxCell id="tqVgQ0UVKhWxxZq-fLlv-19" value="" style="ellipse;whiteSpace=wrap;html=1;aspect=fixed;strokeColor=none;fillColor=#e5e5e5;part=1;" parent="tqVgQ0UVKhWxxZq-fLlv-13" vertex="1">
          <mxGeometry x="0.5" y="1" width="36" height="36" relative="1" as="geometry">
            <mxPoint x="-86" y="-55" as="offset" />
          </mxGeometry>
        </mxCell>
        <mxCell id="tqVgQ0UVKhWxxZq-fLlv-20" value="" style="html=1;strokeColor=none;fillColor=#fd7298;part=1;" parent="tqVgQ0UVKhWxxZq-fLlv-19" vertex="1">
          <mxGeometry x="0.5" y="0.5" width="16" height="16" relative="1" as="geometry">
            <mxPoint x="-8" y="-8" as="offset" />
          </mxGeometry>
        </mxCell>
        <mxCell id="tqVgQ0UVKhWxxZq-fLlv-21" value="" style="ellipse;whiteSpace=wrap;html=1;aspect=fixed;strokeColor=none;fillColor=#e5e5e5;part=1;" parent="tqVgQ0UVKhWxxZq-fLlv-13" vertex="1">
          <mxGeometry x="0.5" y="1" width="36" height="36" relative="1" as="geometry">
            <mxPoint x="-41" y="-55" as="offset" />
          </mxGeometry>
        </mxCell>
        <mxCell id="tqVgQ0UVKhWxxZq-fLlv-22" value="" style="html=1;strokeColor=none;fillColor=#fd7298;part=1;" parent="tqVgQ0UVKhWxxZq-fLlv-21" vertex="1">
          <mxGeometry x="0.5" y="0.5" width="16" height="16" relative="1" as="geometry">
            <mxPoint x="-8" y="-8" as="offset" />
          </mxGeometry>
        </mxCell>
        <mxCell id="tqVgQ0UVKhWxxZq-fLlv-23" value="" style="ellipse;whiteSpace=wrap;html=1;aspect=fixed;strokeColor=none;fillColor=#e5e5e5;part=1;" parent="tqVgQ0UVKhWxxZq-fLlv-13" vertex="1">
          <mxGeometry x="0.5" y="1" width="36" height="36" relative="1" as="geometry">
            <mxPoint x="5" y="-55" as="offset" />
          </mxGeometry>
        </mxCell>
        <mxCell id="tqVgQ0UVKhWxxZq-fLlv-24" value="" style="html=1;strokeColor=none;fillColor=#fd7298;part=1;" parent="tqVgQ0UVKhWxxZq-fLlv-23" vertex="1">
          <mxGeometry x="0.5" y="0.5" width="16" height="16" relative="1" as="geometry">
            <mxPoint x="-8" y="-8" as="offset" />
          </mxGeometry>
        </mxCell>
        <mxCell id="tqVgQ0UVKhWxxZq-fLlv-25" value="" style="ellipse;whiteSpace=wrap;html=1;aspect=fixed;strokeColor=none;fillColor=#e5e5e5;part=1;" parent="tqVgQ0UVKhWxxZq-fLlv-13" vertex="1">
          <mxGeometry x="0.5" y="1" width="36" height="36" relative="1" as="geometry">
            <mxPoint x="50" y="-55" as="offset" />
          </mxGeometry>
        </mxCell>
        <mxCell id="tqVgQ0UVKhWxxZq-fLlv-26" value="" style="html=1;strokeColor=none;fillColor=#fd7298;part=1;" parent="tqVgQ0UVKhWxxZq-fLlv-25" vertex="1">
          <mxGeometry x="0.5" y="0.5" width="16" height="16" relative="1" as="geometry">
            <mxPoint x="-8" y="-8" as="offset" />
          </mxGeometry>
        </mxCell>
        <mxCell id="tqVgQ0UVKhWxxZq-fLlv-11" value="上海沙盒集群" style="text;html=1;strokeColor=none;fillColor=none;align=center;verticalAlign=middle;whiteSpace=wrap;rounded=0;" parent="tqVgQ0UVKhWxxZq-fLlv-55" vertex="1">
          <mxGeometry width="60" height="30" as="geometry" />
        </mxCell>
        <mxCell id="tqVgQ0UVKhWxxZq-fLlv-27" value="" style="rounded=1;whiteSpace=wrap;html=1;strokeColor=#B3B3B3;arcSize=20;absoluteArcSize=1;" parent="tqVgQ0UVKhWxxZq-fLlv-55" vertex="1">
          <mxGeometry x="30" y="55" width="200" height="170" as="geometry" />
        </mxCell>
        <mxCell id="tqVgQ0UVKhWxxZq-fLlv-28" value="" style="ellipse;whiteSpace=wrap;html=1;aspect=fixed;strokeColor=none;fillColor=#e5e5e5;part=1;" parent="tqVgQ0UVKhWxxZq-fLlv-27" vertex="1">
          <mxGeometry width="46" height="46" relative="1" as="geometry">
            <mxPoint x="15" y="10" as="offset" />
          </mxGeometry>
        </mxCell>
        <mxCell id="tqVgQ0UVKhWxxZq-fLlv-29" value="" style="html=1;strokeColor=none;fillColor=#fd7298;part=1;" parent="tqVgQ0UVKhWxxZq-fLlv-28" vertex="1">
          <mxGeometry x="0.5" y="0.5" width="19" height="19" relative="1" as="geometry">
            <mxPoint x="-9.5" y="-9.5" as="offset" />
          </mxGeometry>
        </mxCell>
        <mxCell id="tqVgQ0UVKhWxxZq-fLlv-30" value="沙盒" style="shape=partialRectangle;whiteSpace=wrap;html=1;top=0;left=0;fillColor=none;right=0;fontStyle=1;align=left;strokeColor=#B3B3B3;part=1;" parent="tqVgQ0UVKhWxxZq-fLlv-27" vertex="1">
          <mxGeometry x="1" width="130" height="30" relative="1" as="geometry">
            <mxPoint x="-130" y="20" as="offset" />
          </mxGeometry>
        </mxCell>
        <mxCell id="tqVgQ0UVKhWxxZq-fLlv-31" value="gamer" style="text;html=1;strokeColor=none;fillColor=none;align=left;verticalAlign=middle;whiteSpace=wrap;rounded=0;part=1;" parent="tqVgQ0UVKhWxxZq-fLlv-27" vertex="1">
          <mxGeometry x="1" width="130" height="24" relative="1" as="geometry">
            <mxPoint x="-130" y="54" as="offset" />
          </mxGeometry>
        </mxCell>
        <mxCell id="tqVgQ0UVKhWxxZq-fLlv-32" value="pyengs[1..2]" style="text;html=1;strokeColor=none;fillColor=none;align=left;verticalAlign=middle;whiteSpace=wrap;rounded=0;part=1;" parent="tqVgQ0UVKhWxxZq-fLlv-27" vertex="1">
          <mxGeometry x="1" width="130" height="24" relative="1" as="geometry">
            <mxPoint x="-130" y="78" as="offset" />
          </mxGeometry>
        </mxCell>
        <mxCell id="tqVgQ0UVKhWxxZq-fLlv-33" value="" style="ellipse;whiteSpace=wrap;html=1;aspect=fixed;strokeColor=none;fillColor=#e5e5e5;part=1;" parent="tqVgQ0UVKhWxxZq-fLlv-27" vertex="1">
          <mxGeometry x="0.5" y="1" width="36" height="36" relative="1" as="geometry">
            <mxPoint x="-86" y="-55" as="offset" />
          </mxGeometry>
        </mxCell>
        <mxCell id="tqVgQ0UVKhWxxZq-fLlv-34" value="" style="html=1;strokeColor=none;fillColor=#fd7298;part=1;" parent="tqVgQ0UVKhWxxZq-fLlv-33" vertex="1">
          <mxGeometry x="0.5" y="0.5" width="16" height="16" relative="1" as="geometry">
            <mxPoint x="-8" y="-8" as="offset" />
          </mxGeometry>
        </mxCell>
        <mxCell id="tqVgQ0UVKhWxxZq-fLlv-35" value="" style="ellipse;whiteSpace=wrap;html=1;aspect=fixed;strokeColor=none;fillColor=#e5e5e5;part=1;" parent="tqVgQ0UVKhWxxZq-fLlv-27" vertex="1">
          <mxGeometry x="0.5" y="1" width="36" height="36" relative="1" as="geometry">
            <mxPoint x="-41" y="-55" as="offset" />
          </mxGeometry>
        </mxCell>
        <mxCell id="tqVgQ0UVKhWxxZq-fLlv-36" value="" style="html=1;strokeColor=none;fillColor=#fd7298;part=1;" parent="tqVgQ0UVKhWxxZq-fLlv-35" vertex="1">
          <mxGeometry x="0.5" y="0.5" width="16" height="16" relative="1" as="geometry">
            <mxPoint x="-8" y="-8" as="offset" />
          </mxGeometry>
        </mxCell>
        <mxCell id="tqVgQ0UVKhWxxZq-fLlv-37" value="" style="ellipse;whiteSpace=wrap;html=1;aspect=fixed;strokeColor=none;fillColor=#e5e5e5;part=1;" parent="tqVgQ0UVKhWxxZq-fLlv-27" vertex="1">
          <mxGeometry x="0.5" y="1" width="36" height="36" relative="1" as="geometry">
            <mxPoint x="5" y="-55" as="offset" />
          </mxGeometry>
        </mxCell>
        <mxCell id="tqVgQ0UVKhWxxZq-fLlv-38" value="" style="html=1;strokeColor=none;fillColor=#fd7298;part=1;" parent="tqVgQ0UVKhWxxZq-fLlv-37" vertex="1">
          <mxGeometry x="0.5" y="0.5" width="16" height="16" relative="1" as="geometry">
            <mxPoint x="-8" y="-8" as="offset" />
          </mxGeometry>
        </mxCell>
        <mxCell id="tqVgQ0UVKhWxxZq-fLlv-39" value="" style="ellipse;whiteSpace=wrap;html=1;aspect=fixed;strokeColor=none;fillColor=#e5e5e5;part=1;" parent="tqVgQ0UVKhWxxZq-fLlv-27" vertex="1">
          <mxGeometry x="0.5" y="1" width="36" height="36" relative="1" as="geometry">
            <mxPoint x="50" y="-55" as="offset" />
          </mxGeometry>
        </mxCell>
        <mxCell id="tqVgQ0UVKhWxxZq-fLlv-40" value="" style="html=1;strokeColor=none;fillColor=#fd7298;part=1;" parent="tqVgQ0UVKhWxxZq-fLlv-39" vertex="1">
          <mxGeometry x="0.5" y="0.5" width="16" height="16" relative="1" as="geometry">
            <mxPoint x="-8" y="-8" as="offset" />
          </mxGeometry>
        </mxCell>
        <mxCell id="tqVgQ0UVKhWxxZq-fLlv-41" value="" style="rounded=1;whiteSpace=wrap;html=1;strokeColor=#B3B3B3;arcSize=20;absoluteArcSize=1;" parent="tqVgQ0UVKhWxxZq-fLlv-55" vertex="1">
          <mxGeometry x="40" y="65" width="200" height="170" as="geometry" />
        </mxCell>
        <mxCell id="tqVgQ0UVKhWxxZq-fLlv-42" value="" style="ellipse;whiteSpace=wrap;html=1;aspect=fixed;strokeColor=none;fillColor=#e5e5e5;part=1;" parent="tqVgQ0UVKhWxxZq-fLlv-41" vertex="1">
          <mxGeometry width="46" height="46" relative="1" as="geometry">
            <mxPoint x="15" y="10" as="offset" />
          </mxGeometry>
        </mxCell>
        <mxCell id="tqVgQ0UVKhWxxZq-fLlv-43" value="" style="html=1;strokeColor=none;fillColor=#fd7298;part=1;" parent="tqVgQ0UVKhWxxZq-fLlv-42" vertex="1">
          <mxGeometry x="0.5" y="0.5" width="19" height="19" relative="1" as="geometry">
            <mxPoint x="-9.5" y="-9.5" as="offset" />
          </mxGeometry>
        </mxCell>
        <mxCell id="tqVgQ0UVKhWxxZq-fLlv-44" value="沙盒" style="shape=partialRectangle;whiteSpace=wrap;html=1;top=0;left=0;fillColor=none;right=0;fontStyle=1;align=left;strokeColor=#B3B3B3;part=1;" parent="tqVgQ0UVKhWxxZq-fLlv-41" vertex="1">
          <mxGeometry x="1" width="130" height="30" relative="1" as="geometry">
            <mxPoint x="-130" y="20" as="offset" />
          </mxGeometry>
        </mxCell>
        <mxCell id="tqVgQ0UVKhWxxZq-fLlv-45" value="gamer" style="text;html=1;strokeColor=none;fillColor=none;align=left;verticalAlign=middle;whiteSpace=wrap;rounded=0;part=1;" parent="tqVgQ0UVKhWxxZq-fLlv-41" vertex="1">
          <mxGeometry x="1" width="130" height="24" relative="1" as="geometry">
            <mxPoint x="-130" y="54" as="offset" />
          </mxGeometry>
        </mxCell>
        <mxCell id="tqVgQ0UVKhWxxZq-fLlv-46" value="pyengs[1..2]" style="text;html=1;strokeColor=none;fillColor=none;align=left;verticalAlign=middle;whiteSpace=wrap;rounded=0;part=1;" parent="tqVgQ0UVKhWxxZq-fLlv-41" vertex="1">
          <mxGeometry x="1" width="130" height="24" relative="1" as="geometry">
            <mxPoint x="-130" y="78" as="offset" />
          </mxGeometry>
        </mxCell>
        <mxCell id="tqVgQ0UVKhWxxZq-fLlv-47" value="" style="ellipse;whiteSpace=wrap;html=1;aspect=fixed;strokeColor=none;fillColor=#e5e5e5;part=1;" parent="tqVgQ0UVKhWxxZq-fLlv-41" vertex="1">
          <mxGeometry x="0.5" y="1" width="36" height="36" relative="1" as="geometry">
            <mxPoint x="-86" y="-55" as="offset" />
          </mxGeometry>
        </mxCell>
        <mxCell id="tqVgQ0UVKhWxxZq-fLlv-48" value="" style="html=1;strokeColor=none;fillColor=#fd7298;part=1;" parent="tqVgQ0UVKhWxxZq-fLlv-47" vertex="1">
          <mxGeometry x="0.5" y="0.5" width="16" height="16" relative="1" as="geometry">
            <mxPoint x="-8" y="-8" as="offset" />
          </mxGeometry>
        </mxCell>
        <mxCell id="tqVgQ0UVKhWxxZq-fLlv-49" value="" style="ellipse;whiteSpace=wrap;html=1;aspect=fixed;strokeColor=none;fillColor=#e5e5e5;part=1;" parent="tqVgQ0UVKhWxxZq-fLlv-41" vertex="1">
          <mxGeometry x="0.5" y="1" width="36" height="36" relative="1" as="geometry">
            <mxPoint x="-41" y="-55" as="offset" />
          </mxGeometry>
        </mxCell>
        <mxCell id="tqVgQ0UVKhWxxZq-fLlv-50" value="" style="html=1;strokeColor=none;fillColor=#fd7298;part=1;" parent="tqVgQ0UVKhWxxZq-fLlv-49" vertex="1">
          <mxGeometry x="0.5" y="0.5" width="16" height="16" relative="1" as="geometry">
            <mxPoint x="-8" y="-8" as="offset" />
          </mxGeometry>
        </mxCell>
        <mxCell id="tqVgQ0UVKhWxxZq-fLlv-51" value="" style="ellipse;whiteSpace=wrap;html=1;aspect=fixed;strokeColor=none;fillColor=#e5e5e5;part=1;" parent="tqVgQ0UVKhWxxZq-fLlv-41" vertex="1">
          <mxGeometry x="0.5" y="1" width="36" height="36" relative="1" as="geometry">
            <mxPoint x="5" y="-55" as="offset" />
          </mxGeometry>
        </mxCell>
        <mxCell id="tqVgQ0UVKhWxxZq-fLlv-52" value="" style="html=1;strokeColor=none;fillColor=#fd7298;part=1;" parent="tqVgQ0UVKhWxxZq-fLlv-51" vertex="1">
          <mxGeometry x="0.5" y="0.5" width="16" height="16" relative="1" as="geometry">
            <mxPoint x="-8" y="-8" as="offset" />
          </mxGeometry>
        </mxCell>
        <mxCell id="tqVgQ0UVKhWxxZq-fLlv-53" value="" style="ellipse;whiteSpace=wrap;html=1;aspect=fixed;strokeColor=none;fillColor=#e5e5e5;part=1;" parent="tqVgQ0UVKhWxxZq-fLlv-41" vertex="1">
          <mxGeometry x="0.5" y="1" width="36" height="36" relative="1" as="geometry">
            <mxPoint x="50" y="-55" as="offset" />
          </mxGeometry>
        </mxCell>
        <mxCell id="tqVgQ0UVKhWxxZq-fLlv-54" value="" style="html=1;strokeColor=none;fillColor=#fd7298;part=1;" parent="tqVgQ0UVKhWxxZq-fLlv-53" vertex="1">
          <mxGeometry x="0.5" y="0.5" width="16" height="16" relative="1" as="geometry">
            <mxPoint x="-8" y="-8" as="offset" />
          </mxGeometry>
        </mxCell>
        <mxCell id="tqVgQ0UVKhWxxZq-fLlv-56" value="" style="group" parent="1" vertex="1" connectable="0">
          <mxGeometry x="-140" y="779" width="260" height="250" as="geometry" />
        </mxCell>
        <mxCell id="tqVgQ0UVKhWxxZq-fLlv-57" value="" style="swimlane;startSize=0;" parent="tqVgQ0UVKhWxxZq-fLlv-56" vertex="1">
          <mxGeometry y="30" width="260" height="220" as="geometry">
            <mxRectangle y="30" width="50" height="40" as="alternateBounds" />
          </mxGeometry>
        </mxCell>
        <mxCell id="tqVgQ0UVKhWxxZq-fLlv-58" value="" style="rounded=1;whiteSpace=wrap;html=1;strokeColor=#B3B3B3;arcSize=20;absoluteArcSize=1;" parent="tqVgQ0UVKhWxxZq-fLlv-57" vertex="1">
          <mxGeometry x="20" y="15" width="200" height="170" as="geometry" />
        </mxCell>
        <mxCell id="tqVgQ0UVKhWxxZq-fLlv-59" value="" style="ellipse;whiteSpace=wrap;html=1;aspect=fixed;strokeColor=none;fillColor=#e5e5e5;part=1;" parent="tqVgQ0UVKhWxxZq-fLlv-58" vertex="1">
          <mxGeometry width="46" height="46" relative="1" as="geometry">
            <mxPoint x="15" y="10" as="offset" />
          </mxGeometry>
        </mxCell>
        <mxCell id="tqVgQ0UVKhWxxZq-fLlv-60" value="" style="html=1;strokeColor=none;fillColor=#fd7298;part=1;" parent="tqVgQ0UVKhWxxZq-fLlv-59" vertex="1">
          <mxGeometry x="0.5" y="0.5" width="19" height="19" relative="1" as="geometry">
            <mxPoint x="-9.5" y="-9.5" as="offset" />
          </mxGeometry>
        </mxCell>
        <mxCell id="tqVgQ0UVKhWxxZq-fLlv-61" value="沙盒" style="shape=partialRectangle;whiteSpace=wrap;html=1;top=0;left=0;fillColor=none;right=0;fontStyle=1;align=left;strokeColor=#B3B3B3;part=1;" parent="tqVgQ0UVKhWxxZq-fLlv-58" vertex="1">
          <mxGeometry x="1" width="130" height="30" relative="1" as="geometry">
            <mxPoint x="-130" y="20" as="offset" />
          </mxGeometry>
        </mxCell>
        <mxCell id="tqVgQ0UVKhWxxZq-fLlv-62" value="gamer" style="text;html=1;strokeColor=none;fillColor=none;align=left;verticalAlign=middle;whiteSpace=wrap;rounded=0;part=1;" parent="tqVgQ0UVKhWxxZq-fLlv-58" vertex="1">
          <mxGeometry x="1" width="130" height="24" relative="1" as="geometry">
            <mxPoint x="-130" y="54" as="offset" />
          </mxGeometry>
        </mxCell>
        <mxCell id="tqVgQ0UVKhWxxZq-fLlv-63" value="pyengs[1..2]" style="text;html=1;strokeColor=none;fillColor=none;align=left;verticalAlign=middle;whiteSpace=wrap;rounded=0;part=1;" parent="tqVgQ0UVKhWxxZq-fLlv-58" vertex="1">
          <mxGeometry x="1" width="130" height="24" relative="1" as="geometry">
            <mxPoint x="-130" y="78" as="offset" />
          </mxGeometry>
        </mxCell>
        <mxCell id="tqVgQ0UVKhWxxZq-fLlv-64" value="" style="ellipse;whiteSpace=wrap;html=1;aspect=fixed;strokeColor=none;fillColor=#e5e5e5;part=1;" parent="tqVgQ0UVKhWxxZq-fLlv-58" vertex="1">
          <mxGeometry x="0.5" y="1" width="36" height="36" relative="1" as="geometry">
            <mxPoint x="-86" y="-55" as="offset" />
          </mxGeometry>
        </mxCell>
        <mxCell id="tqVgQ0UVKhWxxZq-fLlv-65" value="" style="html=1;strokeColor=none;fillColor=#fd7298;part=1;" parent="tqVgQ0UVKhWxxZq-fLlv-64" vertex="1">
          <mxGeometry x="0.5" y="0.5" width="16" height="16" relative="1" as="geometry">
            <mxPoint x="-8" y="-8" as="offset" />
          </mxGeometry>
        </mxCell>
        <mxCell id="tqVgQ0UVKhWxxZq-fLlv-66" value="" style="ellipse;whiteSpace=wrap;html=1;aspect=fixed;strokeColor=none;fillColor=#e5e5e5;part=1;" parent="tqVgQ0UVKhWxxZq-fLlv-58" vertex="1">
          <mxGeometry x="0.5" y="1" width="36" height="36" relative="1" as="geometry">
            <mxPoint x="-41" y="-55" as="offset" />
          </mxGeometry>
        </mxCell>
        <mxCell id="tqVgQ0UVKhWxxZq-fLlv-67" value="" style="html=1;strokeColor=none;fillColor=#fd7298;part=1;" parent="tqVgQ0UVKhWxxZq-fLlv-66" vertex="1">
          <mxGeometry x="0.5" y="0.5" width="16" height="16" relative="1" as="geometry">
            <mxPoint x="-8" y="-8" as="offset" />
          </mxGeometry>
        </mxCell>
        <mxCell id="tqVgQ0UVKhWxxZq-fLlv-68" value="" style="ellipse;whiteSpace=wrap;html=1;aspect=fixed;strokeColor=none;fillColor=#e5e5e5;part=1;" parent="tqVgQ0UVKhWxxZq-fLlv-58" vertex="1">
          <mxGeometry x="0.5" y="1" width="36" height="36" relative="1" as="geometry">
            <mxPoint x="5" y="-55" as="offset" />
          </mxGeometry>
        </mxCell>
        <mxCell id="tqVgQ0UVKhWxxZq-fLlv-69" value="" style="html=1;strokeColor=none;fillColor=#fd7298;part=1;" parent="tqVgQ0UVKhWxxZq-fLlv-68" vertex="1">
          <mxGeometry x="0.5" y="0.5" width="16" height="16" relative="1" as="geometry">
            <mxPoint x="-8" y="-8" as="offset" />
          </mxGeometry>
        </mxCell>
        <mxCell id="tqVgQ0UVKhWxxZq-fLlv-70" value="" style="ellipse;whiteSpace=wrap;html=1;aspect=fixed;strokeColor=none;fillColor=#e5e5e5;part=1;" parent="tqVgQ0UVKhWxxZq-fLlv-58" vertex="1">
          <mxGeometry x="0.5" y="1" width="36" height="36" relative="1" as="geometry">
            <mxPoint x="50" y="-55" as="offset" />
          </mxGeometry>
        </mxCell>
        <mxCell id="tqVgQ0UVKhWxxZq-fLlv-71" value="" style="html=1;strokeColor=none;fillColor=#fd7298;part=1;" parent="tqVgQ0UVKhWxxZq-fLlv-70" vertex="1">
          <mxGeometry x="0.5" y="0.5" width="16" height="16" relative="1" as="geometry">
            <mxPoint x="-8" y="-8" as="offset" />
          </mxGeometry>
        </mxCell>
        <mxCell id="tqVgQ0UVKhWxxZq-fLlv-72" value="广州沙盒集群1" style="text;html=1;strokeColor=none;fillColor=none;align=center;verticalAlign=middle;whiteSpace=wrap;rounded=0;" parent="tqVgQ0UVKhWxxZq-fLlv-56" vertex="1">
          <mxGeometry width="60" height="30" as="geometry" />
        </mxCell>
        <mxCell id="tqVgQ0UVKhWxxZq-fLlv-73" value="" style="rounded=1;whiteSpace=wrap;html=1;strokeColor=#B3B3B3;arcSize=20;absoluteArcSize=1;" parent="tqVgQ0UVKhWxxZq-fLlv-56" vertex="1">
          <mxGeometry x="30" y="55" width="200" height="170" as="geometry" />
        </mxCell>
        <mxCell id="tqVgQ0UVKhWxxZq-fLlv-74" value="" style="ellipse;whiteSpace=wrap;html=1;aspect=fixed;strokeColor=none;fillColor=#e5e5e5;part=1;" parent="tqVgQ0UVKhWxxZq-fLlv-73" vertex="1">
          <mxGeometry width="46" height="46" relative="1" as="geometry">
            <mxPoint x="15" y="10" as="offset" />
          </mxGeometry>
        </mxCell>
        <mxCell id="tqVgQ0UVKhWxxZq-fLlv-75" value="" style="html=1;strokeColor=none;fillColor=#fd7298;part=1;" parent="tqVgQ0UVKhWxxZq-fLlv-74" vertex="1">
          <mxGeometry x="0.5" y="0.5" width="19" height="19" relative="1" as="geometry">
            <mxPoint x="-9.5" y="-9.5" as="offset" />
          </mxGeometry>
        </mxCell>
        <mxCell id="tqVgQ0UVKhWxxZq-fLlv-76" value="沙盒" style="shape=partialRectangle;whiteSpace=wrap;html=1;top=0;left=0;fillColor=none;right=0;fontStyle=1;align=left;strokeColor=#B3B3B3;part=1;" parent="tqVgQ0UVKhWxxZq-fLlv-73" vertex="1">
          <mxGeometry x="1" width="130" height="30" relative="1" as="geometry">
            <mxPoint x="-130" y="20" as="offset" />
          </mxGeometry>
        </mxCell>
        <mxCell id="tqVgQ0UVKhWxxZq-fLlv-77" value="gamer" style="text;html=1;strokeColor=none;fillColor=none;align=left;verticalAlign=middle;whiteSpace=wrap;rounded=0;part=1;" parent="tqVgQ0UVKhWxxZq-fLlv-73" vertex="1">
          <mxGeometry x="1" width="130" height="24" relative="1" as="geometry">
            <mxPoint x="-130" y="54" as="offset" />
          </mxGeometry>
        </mxCell>
        <mxCell id="tqVgQ0UVKhWxxZq-fLlv-78" value="pyengs[1..2]" style="text;html=1;strokeColor=none;fillColor=none;align=left;verticalAlign=middle;whiteSpace=wrap;rounded=0;part=1;" parent="tqVgQ0UVKhWxxZq-fLlv-73" vertex="1">
          <mxGeometry x="1" width="130" height="24" relative="1" as="geometry">
            <mxPoint x="-130" y="78" as="offset" />
          </mxGeometry>
        </mxCell>
        <mxCell id="tqVgQ0UVKhWxxZq-fLlv-79" value="" style="ellipse;whiteSpace=wrap;html=1;aspect=fixed;strokeColor=none;fillColor=#e5e5e5;part=1;" parent="tqVgQ0UVKhWxxZq-fLlv-73" vertex="1">
          <mxGeometry x="0.5" y="1" width="36" height="36" relative="1" as="geometry">
            <mxPoint x="-86" y="-55" as="offset" />
          </mxGeometry>
        </mxCell>
        <mxCell id="tqVgQ0UVKhWxxZq-fLlv-80" value="" style="html=1;strokeColor=none;fillColor=#fd7298;part=1;" parent="tqVgQ0UVKhWxxZq-fLlv-79" vertex="1">
          <mxGeometry x="0.5" y="0.5" width="16" height="16" relative="1" as="geometry">
            <mxPoint x="-8" y="-8" as="offset" />
          </mxGeometry>
        </mxCell>
        <mxCell id="tqVgQ0UVKhWxxZq-fLlv-81" value="" style="ellipse;whiteSpace=wrap;html=1;aspect=fixed;strokeColor=none;fillColor=#e5e5e5;part=1;" parent="tqVgQ0UVKhWxxZq-fLlv-73" vertex="1">
          <mxGeometry x="0.5" y="1" width="36" height="36" relative="1" as="geometry">
            <mxPoint x="-41" y="-55" as="offset" />
          </mxGeometry>
        </mxCell>
        <mxCell id="tqVgQ0UVKhWxxZq-fLlv-82" value="" style="html=1;strokeColor=none;fillColor=#fd7298;part=1;" parent="tqVgQ0UVKhWxxZq-fLlv-81" vertex="1">
          <mxGeometry x="0.5" y="0.5" width="16" height="16" relative="1" as="geometry">
            <mxPoint x="-8" y="-8" as="offset" />
          </mxGeometry>
        </mxCell>
        <mxCell id="tqVgQ0UVKhWxxZq-fLlv-83" value="" style="ellipse;whiteSpace=wrap;html=1;aspect=fixed;strokeColor=none;fillColor=#e5e5e5;part=1;" parent="tqVgQ0UVKhWxxZq-fLlv-73" vertex="1">
          <mxGeometry x="0.5" y="1" width="36" height="36" relative="1" as="geometry">
            <mxPoint x="5" y="-55" as="offset" />
          </mxGeometry>
        </mxCell>
        <mxCell id="tqVgQ0UVKhWxxZq-fLlv-84" value="" style="html=1;strokeColor=none;fillColor=#fd7298;part=1;" parent="tqVgQ0UVKhWxxZq-fLlv-83" vertex="1">
          <mxGeometry x="0.5" y="0.5" width="16" height="16" relative="1" as="geometry">
            <mxPoint x="-8" y="-8" as="offset" />
          </mxGeometry>
        </mxCell>
        <mxCell id="tqVgQ0UVKhWxxZq-fLlv-85" value="" style="ellipse;whiteSpace=wrap;html=1;aspect=fixed;strokeColor=none;fillColor=#e5e5e5;part=1;" parent="tqVgQ0UVKhWxxZq-fLlv-73" vertex="1">
          <mxGeometry x="0.5" y="1" width="36" height="36" relative="1" as="geometry">
            <mxPoint x="50" y="-55" as="offset" />
          </mxGeometry>
        </mxCell>
        <mxCell id="tqVgQ0UVKhWxxZq-fLlv-86" value="" style="html=1;strokeColor=none;fillColor=#fd7298;part=1;" parent="tqVgQ0UVKhWxxZq-fLlv-85" vertex="1">
          <mxGeometry x="0.5" y="0.5" width="16" height="16" relative="1" as="geometry">
            <mxPoint x="-8" y="-8" as="offset" />
          </mxGeometry>
        </mxCell>
        <mxCell id="tqVgQ0UVKhWxxZq-fLlv-87" value="" style="rounded=1;whiteSpace=wrap;html=1;strokeColor=#B3B3B3;arcSize=20;absoluteArcSize=1;" parent="tqVgQ0UVKhWxxZq-fLlv-56" vertex="1">
          <mxGeometry x="40" y="65" width="200" height="170" as="geometry" />
        </mxCell>
        <mxCell id="tqVgQ0UVKhWxxZq-fLlv-88" value="" style="ellipse;whiteSpace=wrap;html=1;aspect=fixed;strokeColor=none;fillColor=#e5e5e5;part=1;" parent="tqVgQ0UVKhWxxZq-fLlv-87" vertex="1">
          <mxGeometry width="46" height="46" relative="1" as="geometry">
            <mxPoint x="15" y="10" as="offset" />
          </mxGeometry>
        </mxCell>
        <mxCell id="tqVgQ0UVKhWxxZq-fLlv-89" value="" style="html=1;strokeColor=none;fillColor=#fd7298;part=1;" parent="tqVgQ0UVKhWxxZq-fLlv-88" vertex="1">
          <mxGeometry x="0.5" y="0.5" width="19" height="19" relative="1" as="geometry">
            <mxPoint x="-9.5" y="-9.5" as="offset" />
          </mxGeometry>
        </mxCell>
        <mxCell id="tqVgQ0UVKhWxxZq-fLlv-90" value="沙盒" style="shape=partialRectangle;whiteSpace=wrap;html=1;top=0;left=0;fillColor=none;right=0;fontStyle=1;align=left;strokeColor=#B3B3B3;part=1;" parent="tqVgQ0UVKhWxxZq-fLlv-87" vertex="1">
          <mxGeometry x="1" width="130" height="30" relative="1" as="geometry">
            <mxPoint x="-130" y="20" as="offset" />
          </mxGeometry>
        </mxCell>
        <mxCell id="tqVgQ0UVKhWxxZq-fLlv-91" value="gamer" style="text;html=1;strokeColor=none;fillColor=none;align=left;verticalAlign=middle;whiteSpace=wrap;rounded=0;part=1;" parent="tqVgQ0UVKhWxxZq-fLlv-87" vertex="1">
          <mxGeometry x="1" width="130" height="24" relative="1" as="geometry">
            <mxPoint x="-130" y="54" as="offset" />
          </mxGeometry>
        </mxCell>
        <mxCell id="tqVgQ0UVKhWxxZq-fLlv-92" value="pyengs[1..2]" style="text;html=1;strokeColor=none;fillColor=none;align=left;verticalAlign=middle;whiteSpace=wrap;rounded=0;part=1;" parent="tqVgQ0UVKhWxxZq-fLlv-87" vertex="1">
          <mxGeometry x="1" width="130" height="24" relative="1" as="geometry">
            <mxPoint x="-130" y="78" as="offset" />
          </mxGeometry>
        </mxCell>
        <mxCell id="tqVgQ0UVKhWxxZq-fLlv-93" value="" style="ellipse;whiteSpace=wrap;html=1;aspect=fixed;strokeColor=none;fillColor=#e5e5e5;part=1;" parent="tqVgQ0UVKhWxxZq-fLlv-87" vertex="1">
          <mxGeometry x="0.5" y="1" width="36" height="36" relative="1" as="geometry">
            <mxPoint x="-86" y="-55" as="offset" />
          </mxGeometry>
        </mxCell>
        <mxCell id="tqVgQ0UVKhWxxZq-fLlv-94" value="" style="html=1;strokeColor=none;fillColor=#fd7298;part=1;" parent="tqVgQ0UVKhWxxZq-fLlv-93" vertex="1">
          <mxGeometry x="0.5" y="0.5" width="16" height="16" relative="1" as="geometry">
            <mxPoint x="-8" y="-8" as="offset" />
          </mxGeometry>
        </mxCell>
        <mxCell id="tqVgQ0UVKhWxxZq-fLlv-95" value="" style="ellipse;whiteSpace=wrap;html=1;aspect=fixed;strokeColor=none;fillColor=#e5e5e5;part=1;" parent="tqVgQ0UVKhWxxZq-fLlv-87" vertex="1">
          <mxGeometry x="0.5" y="1" width="36" height="36" relative="1" as="geometry">
            <mxPoint x="-41" y="-55" as="offset" />
          </mxGeometry>
        </mxCell>
        <mxCell id="tqVgQ0UVKhWxxZq-fLlv-96" value="" style="html=1;strokeColor=none;fillColor=#fd7298;part=1;" parent="tqVgQ0UVKhWxxZq-fLlv-95" vertex="1">
          <mxGeometry x="0.5" y="0.5" width="16" height="16" relative="1" as="geometry">
            <mxPoint x="-8" y="-8" as="offset" />
          </mxGeometry>
        </mxCell>
        <mxCell id="tqVgQ0UVKhWxxZq-fLlv-97" value="" style="ellipse;whiteSpace=wrap;html=1;aspect=fixed;strokeColor=none;fillColor=#e5e5e5;part=1;" parent="tqVgQ0UVKhWxxZq-fLlv-87" vertex="1">
          <mxGeometry x="0.5" y="1" width="36" height="36" relative="1" as="geometry">
            <mxPoint x="5" y="-55" as="offset" />
          </mxGeometry>
        </mxCell>
        <mxCell id="tqVgQ0UVKhWxxZq-fLlv-98" value="" style="html=1;strokeColor=none;fillColor=#fd7298;part=1;" parent="tqVgQ0UVKhWxxZq-fLlv-97" vertex="1">
          <mxGeometry x="0.5" y="0.5" width="16" height="16" relative="1" as="geometry">
            <mxPoint x="-8" y="-8" as="offset" />
          </mxGeometry>
        </mxCell>
        <mxCell id="tqVgQ0UVKhWxxZq-fLlv-99" value="" style="ellipse;whiteSpace=wrap;html=1;aspect=fixed;strokeColor=none;fillColor=#e5e5e5;part=1;" parent="tqVgQ0UVKhWxxZq-fLlv-87" vertex="1">
          <mxGeometry x="0.5" y="1" width="36" height="36" relative="1" as="geometry">
            <mxPoint x="50" y="-55" as="offset" />
          </mxGeometry>
        </mxCell>
        <mxCell id="tqVgQ0UVKhWxxZq-fLlv-100" value="" style="html=1;strokeColor=none;fillColor=#fd7298;part=1;" parent="tqVgQ0UVKhWxxZq-fLlv-99" vertex="1">
          <mxGeometry x="0.5" y="0.5" width="16" height="16" relative="1" as="geometry">
            <mxPoint x="-8" y="-8" as="offset" />
          </mxGeometry>
        </mxCell>
        <mxCell id="tqVgQ0UVKhWxxZq-fLlv-101" value="" style="group" parent="1" vertex="1" connectable="0">
          <mxGeometry x="180" y="780" width="260" height="250" as="geometry" />
        </mxCell>
        <mxCell id="tqVgQ0UVKhWxxZq-fLlv-102" value="" style="swimlane;startSize=0;" parent="tqVgQ0UVKhWxxZq-fLlv-101" vertex="1">
          <mxGeometry y="30" width="260" height="220" as="geometry">
            <mxRectangle y="30" width="50" height="40" as="alternateBounds" />
          </mxGeometry>
        </mxCell>
        <mxCell id="tqVgQ0UVKhWxxZq-fLlv-103" value="" style="rounded=1;whiteSpace=wrap;html=1;strokeColor=#B3B3B3;arcSize=20;absoluteArcSize=1;" parent="tqVgQ0UVKhWxxZq-fLlv-102" vertex="1">
          <mxGeometry x="20" y="15" width="200" height="170" as="geometry" />
        </mxCell>
        <mxCell id="tqVgQ0UVKhWxxZq-fLlv-104" value="" style="ellipse;whiteSpace=wrap;html=1;aspect=fixed;strokeColor=none;fillColor=#e5e5e5;part=1;" parent="tqVgQ0UVKhWxxZq-fLlv-103" vertex="1">
          <mxGeometry width="46" height="46" relative="1" as="geometry">
            <mxPoint x="15" y="10" as="offset" />
          </mxGeometry>
        </mxCell>
        <mxCell id="tqVgQ0UVKhWxxZq-fLlv-105" value="" style="html=1;strokeColor=none;fillColor=#fd7298;part=1;" parent="tqVgQ0UVKhWxxZq-fLlv-104" vertex="1">
          <mxGeometry x="0.5" y="0.5" width="19" height="19" relative="1" as="geometry">
            <mxPoint x="-9.5" y="-9.5" as="offset" />
          </mxGeometry>
        </mxCell>
        <mxCell id="tqVgQ0UVKhWxxZq-fLlv-106" value="沙盒" style="shape=partialRectangle;whiteSpace=wrap;html=1;top=0;left=0;fillColor=none;right=0;fontStyle=1;align=left;strokeColor=#B3B3B3;part=1;" parent="tqVgQ0UVKhWxxZq-fLlv-103" vertex="1">
          <mxGeometry x="1" width="130" height="30" relative="1" as="geometry">
            <mxPoint x="-130" y="20" as="offset" />
          </mxGeometry>
        </mxCell>
        <mxCell id="tqVgQ0UVKhWxxZq-fLlv-107" value="gamer" style="text;html=1;strokeColor=none;fillColor=none;align=left;verticalAlign=middle;whiteSpace=wrap;rounded=0;part=1;" parent="tqVgQ0UVKhWxxZq-fLlv-103" vertex="1">
          <mxGeometry x="1" width="130" height="24" relative="1" as="geometry">
            <mxPoint x="-130" y="54" as="offset" />
          </mxGeometry>
        </mxCell>
        <mxCell id="tqVgQ0UVKhWxxZq-fLlv-108" value="pyengs[1..2]" style="text;html=1;strokeColor=none;fillColor=none;align=left;verticalAlign=middle;whiteSpace=wrap;rounded=0;part=1;" parent="tqVgQ0UVKhWxxZq-fLlv-103" vertex="1">
          <mxGeometry x="1" width="130" height="24" relative="1" as="geometry">
            <mxPoint x="-130" y="78" as="offset" />
          </mxGeometry>
        </mxCell>
        <mxCell id="tqVgQ0UVKhWxxZq-fLlv-109" value="" style="ellipse;whiteSpace=wrap;html=1;aspect=fixed;strokeColor=none;fillColor=#e5e5e5;part=1;" parent="tqVgQ0UVKhWxxZq-fLlv-103" vertex="1">
          <mxGeometry x="0.5" y="1" width="36" height="36" relative="1" as="geometry">
            <mxPoint x="-86" y="-55" as="offset" />
          </mxGeometry>
        </mxCell>
        <mxCell id="tqVgQ0UVKhWxxZq-fLlv-110" value="" style="html=1;strokeColor=none;fillColor=#fd7298;part=1;" parent="tqVgQ0UVKhWxxZq-fLlv-109" vertex="1">
          <mxGeometry x="0.5" y="0.5" width="16" height="16" relative="1" as="geometry">
            <mxPoint x="-8" y="-8" as="offset" />
          </mxGeometry>
        </mxCell>
        <mxCell id="tqVgQ0UVKhWxxZq-fLlv-111" value="" style="ellipse;whiteSpace=wrap;html=1;aspect=fixed;strokeColor=none;fillColor=#e5e5e5;part=1;" parent="tqVgQ0UVKhWxxZq-fLlv-103" vertex="1">
          <mxGeometry x="0.5" y="1" width="36" height="36" relative="1" as="geometry">
            <mxPoint x="-41" y="-55" as="offset" />
          </mxGeometry>
        </mxCell>
        <mxCell id="tqVgQ0UVKhWxxZq-fLlv-112" value="" style="html=1;strokeColor=none;fillColor=#fd7298;part=1;" parent="tqVgQ0UVKhWxxZq-fLlv-111" vertex="1">
          <mxGeometry x="0.5" y="0.5" width="16" height="16" relative="1" as="geometry">
            <mxPoint x="-8" y="-8" as="offset" />
          </mxGeometry>
        </mxCell>
        <mxCell id="tqVgQ0UVKhWxxZq-fLlv-113" value="" style="ellipse;whiteSpace=wrap;html=1;aspect=fixed;strokeColor=none;fillColor=#e5e5e5;part=1;" parent="tqVgQ0UVKhWxxZq-fLlv-103" vertex="1">
          <mxGeometry x="0.5" y="1" width="36" height="36" relative="1" as="geometry">
            <mxPoint x="5" y="-55" as="offset" />
          </mxGeometry>
        </mxCell>
        <mxCell id="tqVgQ0UVKhWxxZq-fLlv-114" value="" style="html=1;strokeColor=none;fillColor=#fd7298;part=1;" parent="tqVgQ0UVKhWxxZq-fLlv-113" vertex="1">
          <mxGeometry x="0.5" y="0.5" width="16" height="16" relative="1" as="geometry">
            <mxPoint x="-8" y="-8" as="offset" />
          </mxGeometry>
        </mxCell>
        <mxCell id="tqVgQ0UVKhWxxZq-fLlv-115" value="" style="ellipse;whiteSpace=wrap;html=1;aspect=fixed;strokeColor=none;fillColor=#e5e5e5;part=1;" parent="tqVgQ0UVKhWxxZq-fLlv-103" vertex="1">
          <mxGeometry x="0.5" y="1" width="36" height="36" relative="1" as="geometry">
            <mxPoint x="50" y="-55" as="offset" />
          </mxGeometry>
        </mxCell>
        <mxCell id="tqVgQ0UVKhWxxZq-fLlv-116" value="" style="html=1;strokeColor=none;fillColor=#fd7298;part=1;" parent="tqVgQ0UVKhWxxZq-fLlv-115" vertex="1">
          <mxGeometry x="0.5" y="0.5" width="16" height="16" relative="1" as="geometry">
            <mxPoint x="-8" y="-8" as="offset" />
          </mxGeometry>
        </mxCell>
        <mxCell id="tqVgQ0UVKhWxxZq-fLlv-117" value="广州沙盒集群2" style="text;html=1;strokeColor=none;fillColor=none;align=center;verticalAlign=middle;whiteSpace=wrap;rounded=0;" parent="tqVgQ0UVKhWxxZq-fLlv-101" vertex="1">
          <mxGeometry width="60" height="30" as="geometry" />
        </mxCell>
        <mxCell id="tqVgQ0UVKhWxxZq-fLlv-118" value="" style="rounded=1;whiteSpace=wrap;html=1;strokeColor=#B3B3B3;arcSize=20;absoluteArcSize=1;" parent="tqVgQ0UVKhWxxZq-fLlv-101" vertex="1">
          <mxGeometry x="30" y="55" width="200" height="170" as="geometry" />
        </mxCell>
        <mxCell id="tqVgQ0UVKhWxxZq-fLlv-119" value="" style="ellipse;whiteSpace=wrap;html=1;aspect=fixed;strokeColor=none;fillColor=#e5e5e5;part=1;" parent="tqVgQ0UVKhWxxZq-fLlv-118" vertex="1">
          <mxGeometry width="46" height="46" relative="1" as="geometry">
            <mxPoint x="15" y="10" as="offset" />
          </mxGeometry>
        </mxCell>
        <mxCell id="tqVgQ0UVKhWxxZq-fLlv-120" value="" style="html=1;strokeColor=none;fillColor=#fd7298;part=1;" parent="tqVgQ0UVKhWxxZq-fLlv-119" vertex="1">
          <mxGeometry x="0.5" y="0.5" width="19" height="19" relative="1" as="geometry">
            <mxPoint x="-9.5" y="-9.5" as="offset" />
          </mxGeometry>
        </mxCell>
        <mxCell id="tqVgQ0UVKhWxxZq-fLlv-121" value="沙盒" style="shape=partialRectangle;whiteSpace=wrap;html=1;top=0;left=0;fillColor=none;right=0;fontStyle=1;align=left;strokeColor=#B3B3B3;part=1;" parent="tqVgQ0UVKhWxxZq-fLlv-118" vertex="1">
          <mxGeometry x="1" width="130" height="30" relative="1" as="geometry">
            <mxPoint x="-130" y="20" as="offset" />
          </mxGeometry>
        </mxCell>
        <mxCell id="tqVgQ0UVKhWxxZq-fLlv-122" value="gamer" style="text;html=1;strokeColor=none;fillColor=none;align=left;verticalAlign=middle;whiteSpace=wrap;rounded=0;part=1;" parent="tqVgQ0UVKhWxxZq-fLlv-118" vertex="1">
          <mxGeometry x="1" width="130" height="24" relative="1" as="geometry">
            <mxPoint x="-130" y="54" as="offset" />
          </mxGeometry>
        </mxCell>
        <mxCell id="tqVgQ0UVKhWxxZq-fLlv-123" value="pyengs[1..2]" style="text;html=1;strokeColor=none;fillColor=none;align=left;verticalAlign=middle;whiteSpace=wrap;rounded=0;part=1;" parent="tqVgQ0UVKhWxxZq-fLlv-118" vertex="1">
          <mxGeometry x="1" width="130" height="24" relative="1" as="geometry">
            <mxPoint x="-130" y="78" as="offset" />
          </mxGeometry>
        </mxCell>
        <mxCell id="tqVgQ0UVKhWxxZq-fLlv-124" value="" style="ellipse;whiteSpace=wrap;html=1;aspect=fixed;strokeColor=none;fillColor=#e5e5e5;part=1;" parent="tqVgQ0UVKhWxxZq-fLlv-118" vertex="1">
          <mxGeometry x="0.5" y="1" width="36" height="36" relative="1" as="geometry">
            <mxPoint x="-86" y="-55" as="offset" />
          </mxGeometry>
        </mxCell>
        <mxCell id="tqVgQ0UVKhWxxZq-fLlv-125" value="" style="html=1;strokeColor=none;fillColor=#fd7298;part=1;" parent="tqVgQ0UVKhWxxZq-fLlv-124" vertex="1">
          <mxGeometry x="0.5" y="0.5" width="16" height="16" relative="1" as="geometry">
            <mxPoint x="-8" y="-8" as="offset" />
          </mxGeometry>
        </mxCell>
        <mxCell id="tqVgQ0UVKhWxxZq-fLlv-126" value="" style="ellipse;whiteSpace=wrap;html=1;aspect=fixed;strokeColor=none;fillColor=#e5e5e5;part=1;" parent="tqVgQ0UVKhWxxZq-fLlv-118" vertex="1">
          <mxGeometry x="0.5" y="1" width="36" height="36" relative="1" as="geometry">
            <mxPoint x="-41" y="-55" as="offset" />
          </mxGeometry>
        </mxCell>
        <mxCell id="tqVgQ0UVKhWxxZq-fLlv-127" value="" style="html=1;strokeColor=none;fillColor=#fd7298;part=1;" parent="tqVgQ0UVKhWxxZq-fLlv-126" vertex="1">
          <mxGeometry x="0.5" y="0.5" width="16" height="16" relative="1" as="geometry">
            <mxPoint x="-8" y="-8" as="offset" />
          </mxGeometry>
        </mxCell>
        <mxCell id="tqVgQ0UVKhWxxZq-fLlv-128" value="" style="ellipse;whiteSpace=wrap;html=1;aspect=fixed;strokeColor=none;fillColor=#e5e5e5;part=1;" parent="tqVgQ0UVKhWxxZq-fLlv-118" vertex="1">
          <mxGeometry x="0.5" y="1" width="36" height="36" relative="1" as="geometry">
            <mxPoint x="5" y="-55" as="offset" />
          </mxGeometry>
        </mxCell>
        <mxCell id="tqVgQ0UVKhWxxZq-fLlv-129" value="" style="html=1;strokeColor=none;fillColor=#fd7298;part=1;" parent="tqVgQ0UVKhWxxZq-fLlv-128" vertex="1">
          <mxGeometry x="0.5" y="0.5" width="16" height="16" relative="1" as="geometry">
            <mxPoint x="-8" y="-8" as="offset" />
          </mxGeometry>
        </mxCell>
        <mxCell id="tqVgQ0UVKhWxxZq-fLlv-130" value="" style="ellipse;whiteSpace=wrap;html=1;aspect=fixed;strokeColor=none;fillColor=#e5e5e5;part=1;" parent="tqVgQ0UVKhWxxZq-fLlv-118" vertex="1">
          <mxGeometry x="0.5" y="1" width="36" height="36" relative="1" as="geometry">
            <mxPoint x="50" y="-55" as="offset" />
          </mxGeometry>
        </mxCell>
        <mxCell id="tqVgQ0UVKhWxxZq-fLlv-131" value="" style="html=1;strokeColor=none;fillColor=#fd7298;part=1;" parent="tqVgQ0UVKhWxxZq-fLlv-130" vertex="1">
          <mxGeometry x="0.5" y="0.5" width="16" height="16" relative="1" as="geometry">
            <mxPoint x="-8" y="-8" as="offset" />
          </mxGeometry>
        </mxCell>
        <mxCell id="tqVgQ0UVKhWxxZq-fLlv-132" value="" style="rounded=1;whiteSpace=wrap;html=1;strokeColor=#B3B3B3;arcSize=20;absoluteArcSize=1;" parent="tqVgQ0UVKhWxxZq-fLlv-101" vertex="1">
          <mxGeometry x="40" y="65" width="200" height="170" as="geometry" />
        </mxCell>
        <mxCell id="tqVgQ0UVKhWxxZq-fLlv-133" value="" style="ellipse;whiteSpace=wrap;html=1;aspect=fixed;strokeColor=none;fillColor=#e5e5e5;part=1;" parent="tqVgQ0UVKhWxxZq-fLlv-132" vertex="1">
          <mxGeometry width="46" height="46" relative="1" as="geometry">
            <mxPoint x="15" y="10" as="offset" />
          </mxGeometry>
        </mxCell>
        <mxCell id="tqVgQ0UVKhWxxZq-fLlv-134" value="" style="html=1;strokeColor=none;fillColor=#fd7298;part=1;" parent="tqVgQ0UVKhWxxZq-fLlv-133" vertex="1">
          <mxGeometry x="0.5" y="0.5" width="19" height="19" relative="1" as="geometry">
            <mxPoint x="-9.5" y="-9.5" as="offset" />
          </mxGeometry>
        </mxCell>
        <mxCell id="tqVgQ0UVKhWxxZq-fLlv-135" value="沙盒" style="shape=partialRectangle;whiteSpace=wrap;html=1;top=0;left=0;fillColor=none;right=0;fontStyle=1;align=left;strokeColor=#B3B3B3;part=1;" parent="tqVgQ0UVKhWxxZq-fLlv-132" vertex="1">
          <mxGeometry x="1" width="130" height="30" relative="1" as="geometry">
            <mxPoint x="-130" y="20" as="offset" />
          </mxGeometry>
        </mxCell>
        <mxCell id="tqVgQ0UVKhWxxZq-fLlv-136" value="gamer" style="text;html=1;strokeColor=none;fillColor=none;align=left;verticalAlign=middle;whiteSpace=wrap;rounded=0;part=1;" parent="tqVgQ0UVKhWxxZq-fLlv-132" vertex="1">
          <mxGeometry x="1" width="130" height="24" relative="1" as="geometry">
            <mxPoint x="-130" y="54" as="offset" />
          </mxGeometry>
        </mxCell>
        <mxCell id="tqVgQ0UVKhWxxZq-fLlv-137" value="pyengs[1..2]" style="text;html=1;strokeColor=none;fillColor=none;align=left;verticalAlign=middle;whiteSpace=wrap;rounded=0;part=1;" parent="tqVgQ0UVKhWxxZq-fLlv-132" vertex="1">
          <mxGeometry x="1" width="130" height="24" relative="1" as="geometry">
            <mxPoint x="-130" y="78" as="offset" />
          </mxGeometry>
        </mxCell>
        <mxCell id="tqVgQ0UVKhWxxZq-fLlv-138" value="" style="ellipse;whiteSpace=wrap;html=1;aspect=fixed;strokeColor=none;fillColor=#e5e5e5;part=1;" parent="tqVgQ0UVKhWxxZq-fLlv-132" vertex="1">
          <mxGeometry x="0.5" y="1" width="36" height="36" relative="1" as="geometry">
            <mxPoint x="-86" y="-55" as="offset" />
          </mxGeometry>
        </mxCell>
        <mxCell id="tqVgQ0UVKhWxxZq-fLlv-139" value="" style="html=1;strokeColor=none;fillColor=#fd7298;part=1;" parent="tqVgQ0UVKhWxxZq-fLlv-138" vertex="1">
          <mxGeometry x="0.5" y="0.5" width="16" height="16" relative="1" as="geometry">
            <mxPoint x="-8" y="-8" as="offset" />
          </mxGeometry>
        </mxCell>
        <mxCell id="tqVgQ0UVKhWxxZq-fLlv-140" value="" style="ellipse;whiteSpace=wrap;html=1;aspect=fixed;strokeColor=none;fillColor=#e5e5e5;part=1;" parent="tqVgQ0UVKhWxxZq-fLlv-132" vertex="1">
          <mxGeometry x="0.5" y="1" width="36" height="36" relative="1" as="geometry">
            <mxPoint x="-41" y="-55" as="offset" />
          </mxGeometry>
        </mxCell>
        <mxCell id="tqVgQ0UVKhWxxZq-fLlv-141" value="" style="html=1;strokeColor=none;fillColor=#fd7298;part=1;" parent="tqVgQ0UVKhWxxZq-fLlv-140" vertex="1">
          <mxGeometry x="0.5" y="0.5" width="16" height="16" relative="1" as="geometry">
            <mxPoint x="-8" y="-8" as="offset" />
          </mxGeometry>
        </mxCell>
        <mxCell id="tqVgQ0UVKhWxxZq-fLlv-142" value="" style="ellipse;whiteSpace=wrap;html=1;aspect=fixed;strokeColor=none;fillColor=#e5e5e5;part=1;" parent="tqVgQ0UVKhWxxZq-fLlv-132" vertex="1">
          <mxGeometry x="0.5" y="1" width="36" height="36" relative="1" as="geometry">
            <mxPoint x="5" y="-55" as="offset" />
          </mxGeometry>
        </mxCell>
        <mxCell id="tqVgQ0UVKhWxxZq-fLlv-143" value="" style="html=1;strokeColor=none;fillColor=#fd7298;part=1;" parent="tqVgQ0UVKhWxxZq-fLlv-142" vertex="1">
          <mxGeometry x="0.5" y="0.5" width="16" height="16" relative="1" as="geometry">
            <mxPoint x="-8" y="-8" as="offset" />
          </mxGeometry>
        </mxCell>
        <mxCell id="tqVgQ0UVKhWxxZq-fLlv-144" value="" style="ellipse;whiteSpace=wrap;html=1;aspect=fixed;strokeColor=none;fillColor=#e5e5e5;part=1;" parent="tqVgQ0UVKhWxxZq-fLlv-132" vertex="1">
          <mxGeometry x="0.5" y="1" width="36" height="36" relative="1" as="geometry">
            <mxPoint x="50" y="-55" as="offset" />
          </mxGeometry>
        </mxCell>
        <mxCell id="tqVgQ0UVKhWxxZq-fLlv-145" value="" style="html=1;strokeColor=none;fillColor=#fd7298;part=1;" parent="tqVgQ0UVKhWxxZq-fLlv-144" vertex="1">
          <mxGeometry x="0.5" y="0.5" width="16" height="16" relative="1" as="geometry">
            <mxPoint x="-8" y="-8" as="offset" />
          </mxGeometry>
        </mxCell>
        <mxCell id="tqVgQ0UVKhWxxZq-fLlv-148" value="调度器【赛事】" style="rounded=1;whiteSpace=wrap;html=1;fillColor=#dae8fc;strokeColor=#6c8ebf;" parent="1" vertex="1">
          <mxGeometry x="83" y="520" width="120" height="60" as="geometry" />
        </mxCell>
        <mxCell id="tqVgQ0UVKhWxxZq-fLlv-149" value="调度器【其他】" style="rounded=1;whiteSpace=wrap;html=1;fillColor=#dae8fc;strokeColor=#6c8ebf;" parent="1" vertex="1">
          <mxGeometry x="243" y="520" width="120" height="60" as="geometry" />
        </mxCell>
        <mxCell id="tqVgQ0UVKhWxxZq-fLlv-156" style="edgeStyle=orthogonalEdgeStyle;rounded=0;orthogonalLoop=1;jettySize=auto;html=1;exitX=0.5;exitY=1;exitDx=0;exitDy=0;entryX=0.468;entryY=-0.007;entryDx=0;entryDy=0;entryPerimeter=0;" parent="1" source="tqVgQ0UVKhWxxZq-fLlv-154" target="tqVgQ0UVKhWxxZq-fLlv-57" edge="1">
          <mxGeometry relative="1" as="geometry">
            <mxPoint x="-20" y="810" as="targetPoint" />
          </mxGeometry>
        </mxCell>
        <mxCell id="tqVgQ0UVKhWxxZq-fLlv-154" value="沙盒调度器" style="rounded=1;whiteSpace=wrap;html=1;fillColor=#dae8fc;strokeColor=#6c8ebf;" parent="1" vertex="1">
          <mxGeometry x="-67" y="720" width="100" height="50" as="geometry" />
        </mxCell>
        <mxCell id="tqVgQ0UVKhWxxZq-fLlv-155" value="调度策略" style="rounded=1;whiteSpace=wrap;html=1;fillColor=#dae8fc;strokeColor=#6c8ebf;" parent="1" vertex="1">
          <mxGeometry x="18" y="560" width="250" height="30" as="geometry" />
        </mxCell>
        <mxCell id="tqVgQ0UVKhWxxZq-fLlv-164" style="edgeStyle=orthogonalEdgeStyle;rounded=0;orthogonalLoop=1;jettySize=auto;html=1;exitX=0.5;exitY=1;exitDx=0;exitDy=0;" parent="1" source="tqVgQ0UVKhWxxZq-fLlv-163" edge="1">
          <mxGeometry relative="1" as="geometry">
            <mxPoint x="309" y="810" as="targetPoint" />
          </mxGeometry>
        </mxCell>
        <mxCell id="tqVgQ0UVKhWxxZq-fLlv-178" style="rounded=0;orthogonalLoop=1;jettySize=auto;html=1;exitX=0.75;exitY=0;exitDx=0;exitDy=0;entryX=0.5;entryY=1;entryDx=0;entryDy=0;" parent="1" source="tqVgQ0UVKhWxxZq-fLlv-163" target="tqVgQ0UVKhWxxZq-fLlv-176" edge="1">
          <mxGeometry relative="1" as="geometry" />
        </mxCell>
        <mxCell id="tqVgQ0UVKhWxxZq-fLlv-187" value="result" style="edgeLabel;html=1;align=center;verticalAlign=middle;resizable=0;points=[];" parent="tqVgQ0UVKhWxxZq-fLlv-178" vertex="1" connectable="0">
          <mxGeometry x="0.1518" y="2" relative="1" as="geometry">
            <mxPoint as="offset" />
          </mxGeometry>
        </mxCell>
        <mxCell id="tqVgQ0UVKhWxxZq-fLlv-163" value="沙盒调度器" style="rounded=1;whiteSpace=wrap;html=1;fillColor=#dae8fc;strokeColor=#6c8ebf;" parent="1" vertex="1">
          <mxGeometry x="259" y="720" width="100" height="50" as="geometry" />
        </mxCell>
        <mxCell id="tqVgQ0UVKhWxxZq-fLlv-168" style="edgeStyle=orthogonalEdgeStyle;rounded=0;orthogonalLoop=1;jettySize=auto;html=1;exitX=0.5;exitY=1;exitDx=0;exitDy=0;" parent="1" source="tqVgQ0UVKhWxxZq-fLlv-167" edge="1">
          <mxGeometry relative="1" as="geometry">
            <mxPoint x="770" y="810" as="targetPoint" />
          </mxGeometry>
        </mxCell>
        <mxCell id="tqVgQ0UVKhWxxZq-fLlv-167" value="沙盒调度器" style="rounded=1;whiteSpace=wrap;html=1;fillColor=#dae8fc;strokeColor=#6c8ebf;" parent="1" vertex="1">
          <mxGeometry x="720" y="720" width="100" height="50" as="geometry" />
        </mxCell>
        <mxCell id="tqVgQ0UVKhWxxZq-fLlv-169" value="" style="endArrow=none;html=1;rounded=0;" parent="1" edge="1">
          <mxGeometry width="50" height="50" relative="1" as="geometry">
            <mxPoint x="550" y="1040" as="sourcePoint" />
            <mxPoint x="550" y="720" as="targetPoint" />
          </mxGeometry>
        </mxCell>
        <mxCell id="tqVgQ0UVKhWxxZq-fLlv-173" style="edgeStyle=orthogonalEdgeStyle;rounded=0;orthogonalLoop=1;jettySize=auto;html=1;exitX=1;exitY=0.5;exitDx=-2.7;exitDy=0;exitPerimeter=0;entryX=0.5;entryY=0;entryDx=0;entryDy=0;" parent="1" source="tqVgQ0UVKhWxxZq-fLlv-171" target="tqVgQ0UVKhWxxZq-fLlv-167" edge="1">
          <mxGeometry relative="1" as="geometry" />
        </mxCell>
        <mxCell id="tqVgQ0UVKhWxxZq-fLlv-184" value="run" style="edgeLabel;html=1;align=center;verticalAlign=middle;resizable=0;points=[];" parent="tqVgQ0UVKhWxxZq-fLlv-173" vertex="1" connectable="0">
          <mxGeometry x="0.1584" y="1" relative="1" as="geometry">
            <mxPoint as="offset" />
          </mxGeometry>
        </mxCell>
        <mxCell id="tqVgQ0UVKhWxxZq-fLlv-180" style="rounded=0;orthogonalLoop=1;jettySize=auto;html=1;exitX=0.075;exitY=0.184;exitDx=0;exitDy=0;exitPerimeter=0;entryX=0.5;entryY=1;entryDx=0;entryDy=0;" parent="1" source="tqVgQ0UVKhWxxZq-fLlv-171" target="tqVgQ0UVKhWxxZq-fLlv-176" edge="1">
          <mxGeometry relative="1" as="geometry" />
        </mxCell>
        <mxCell id="tqVgQ0UVKhWxxZq-fLlv-186" value="result" style="edgeLabel;html=1;align=center;verticalAlign=middle;resizable=0;points=[];" parent="tqVgQ0UVKhWxxZq-fLlv-180" vertex="1" connectable="0">
          <mxGeometry x="-0.019" y="4" relative="1" as="geometry">
            <mxPoint as="offset" />
          </mxGeometry>
        </mxCell>
        <mxCell id="tqVgQ0UVKhWxxZq-fLlv-171" value="" style="strokeWidth=1;outlineConnect=0;dashed=0;align=center;html=1;fontSize=8;shape=mxgraph.eip.messageChannel;verticalLabelPosition=bottom;labelBackgroundColor=#ffffff;verticalAlign=top;" parent="1" vertex="1">
          <mxGeometry x="470" y="660" width="150" height="40" as="geometry" />
        </mxCell>
        <mxCell id="tqVgQ0UVKhWxxZq-fLlv-172" value="云联网" style="text;html=1;strokeColor=none;fillColor=none;align=center;verticalAlign=middle;whiteSpace=wrap;rounded=0;" parent="1" vertex="1">
          <mxGeometry x="515" y="640" width="60" height="30" as="geometry" />
        </mxCell>
        <mxCell id="tqVgQ0UVKhWxxZq-fLlv-174" style="rounded=0;orthogonalLoop=1;jettySize=auto;html=1;entryX=0;entryY=0.5;entryDx=2.7;entryDy=0;entryPerimeter=0;dashed=1;dashPattern=8 8;" parent="1" target="tqVgQ0UVKhWxxZq-fLlv-171" edge="1">
          <mxGeometry relative="1" as="geometry">
            <mxPoint x="140" y="590" as="sourcePoint" />
          </mxGeometry>
        </mxCell>
        <mxCell id="tqVgQ0UVKhWxxZq-fLlv-183" value="run" style="edgeLabel;html=1;align=center;verticalAlign=middle;resizable=0;points=[];" parent="tqVgQ0UVKhWxxZq-fLlv-174" vertex="1" connectable="0">
          <mxGeometry x="0.2872" y="3" relative="1" as="geometry">
            <mxPoint as="offset" />
          </mxGeometry>
        </mxCell>
        <mxCell id="tqVgQ0UVKhWxxZq-fLlv-175" value="多队列" style="text;html=1;strokeColor=none;fillColor=none;align=center;verticalAlign=middle;whiteSpace=wrap;rounded=0;" parent="1" vertex="1">
          <mxGeometry x="193" y="300" width="50" height="31" as="geometry" />
        </mxCell>
        <mxCell id="tqVgQ0UVKhWxxZq-fLlv-176" value="结果服务" style="rounded=1;whiteSpace=wrap;html=1;fillColor=#dae8fc;strokeColor=#6c8ebf;" parent="1" vertex="1">
          <mxGeometry x="410" y="520" width="120" height="60" as="geometry" />
        </mxCell>
        <mxCell id="tqVgQ0UVKhWxxZq-fLlv-177" style="rounded=0;orthogonalLoop=1;jettySize=auto;html=1;exitX=1;exitY=0;exitDx=0;exitDy=0;entryX=0.424;entryY=1.047;entryDx=0;entryDy=0;entryPerimeter=0;" parent="1" source="tqVgQ0UVKhWxxZq-fLlv-154" target="tqVgQ0UVKhWxxZq-fLlv-176" edge="1">
          <mxGeometry relative="1" as="geometry" />
        </mxCell>
        <mxCell id="tqVgQ0UVKhWxxZq-fLlv-188" value="result" style="edgeLabel;html=1;align=center;verticalAlign=middle;resizable=0;points=[];" parent="tqVgQ0UVKhWxxZq-fLlv-177" vertex="1" connectable="0">
          <mxGeometry x="0.089" y="3" relative="1" as="geometry">
            <mxPoint as="offset" />
          </mxGeometry>
        </mxCell>
        <mxCell id="tqVgQ0UVKhWxxZq-fLlv-179" style="edgeStyle=entityRelationEdgeStyle;rounded=0;orthogonalLoop=1;jettySize=auto;html=1;exitX=0.25;exitY=0;exitDx=0;exitDy=0;entryX=0.963;entryY=0.741;entryDx=0;entryDy=0;entryPerimeter=0;" parent="1" source="tqVgQ0UVKhWxxZq-fLlv-167" target="tqVgQ0UVKhWxxZq-fLlv-171" edge="1">
          <mxGeometry relative="1" as="geometry" />
        </mxCell>
        <mxCell id="tqVgQ0UVKhWxxZq-fLlv-185" value="result" style="edgeLabel;html=1;align=center;verticalAlign=middle;resizable=0;points=[];" parent="tqVgQ0UVKhWxxZq-fLlv-179" vertex="1" connectable="0">
          <mxGeometry x="0.0501" y="2" relative="1" as="geometry">
            <mxPoint as="offset" />
          </mxGeometry>
        </mxCell>
      </root>
    </mxGraphModel>
  </diagram>
</mxfile>
